<?xml version="1.0" encoding="UTF-8"?><svg id="Layer_2" xmlns="http://www.w3.org/2000/svg" width="94.16" height="94.16" viewBox="0 0 94.16 94.16"><defs><style>.cls-1{fill:#feeff6;}.cls-1,.cls-2{stroke:#c5202d;stroke-linecap:round;stroke-linejoin:round;stroke-width:2px;}.cls-2{fill:none;}</style></defs><g id="Layer_14"><g><circle class="cls-1" cx="47.08" cy="47.08" r="46.08"/><g><path class="cls-2" d="m34.48,52.68c.66-.1,1.67-.18,2.86.06,1.63.33,2.77,1.09,3.37,1.55"/><path class="cls-2" d="m59.44,52.68c-.66-.1-1.67-.18-2.86.06-1.63.33-2.77,1.09-3.37,1.55"/><path class="cls-2" d="m44.57,57.98s2.45,2.23,4.78,0"/><circle class="cls-2" cx="46.96" cy="50.21" r="20.59"/><path class="cls-2" d="m32.08,36.48c2.83,5.6,8.6,9.15,14.87,9.15s12.04-3.55,14.87-9.15"/><path class="cls-2" d="m51.34,29.63c.16-.46,1.75-4.77,6.08-5.98,3.51-.98,6.42.76,7.65,1.49,1.28.76,4.9,2.93,5.29,7.04.3,3.22-1.48,6.44-4.5,8.34"/><path class="cls-2" d="m42.83,29.63c-.16-.46-1.75-4.77-6.08-5.98-3.51-.98-6.42.76-7.65,1.49-1.28.76-4.9,2.93-5.29,7.04-.3,3.22,1.48,6.44,4.5,8.34"/></g></g></g></svg>