<?xml version="1.0" encoding="UTF-8"?><svg id="Layer_2" xmlns="http://www.w3.org/2000/svg" width="94.16" height="94.16" viewBox="0 0 94.16 94.16"><defs><style>.cls-1{fill:#c5202d;}.cls-1,.cls-2,.cls-3{stroke:#c5202d;stroke-linecap:round;stroke-linejoin:round;stroke-width:2px;}.cls-2{fill:#feeff6;}.cls-3{fill:none;}</style></defs><g id="Layer_14"><g><circle class="cls-2" cx="47.08" cy="47.08" r="46.08"/><g><path class="cls-3" d="m47.08,62.02c-10.71-6.11-21.43-12.22-32.14-18.33.84-1.25,12.03-17.27,32.38-17.14,20.05.12,31.01,15.81,31.9,17.14-10.71,6.11-21.43,12.22-32.14,18.33Z"/><path class="cls-3" d="m47.08,62.14c-1.51,1.78-3.02,3.57-4.54,5.35,1.16.3,2.75.59,4.64.58,1.8-.01,3.31-.29,4.44-.58-1.51-1.78-3.02-3.57-4.54-5.35Z"/><rect class="cls-1" x="45.86" y="61.36" width="2.34" height="1.87"/><line class="cls-3" x1="47.03" y1="26.54" x2="47.03" y2="62.02"/><path class="cls-3" d="m34.8,28.76c4.09,11.09,8.19,22.17,12.28,33.26"/><path class="cls-3" d="m23.37,35.03c7.9,9,15.81,17.99,23.71,26.99"/><path class="cls-3" d="m22.72,48.12c.7-1.04,9.03-12.96,24.31-13.09,15.47-.14,24.05,11.94,24.72,12.92"/><path class="cls-3" d="m59.36,28.76c-4.09,11.09-8.19,22.17-12.28,33.26"/><path class="cls-3" d="m70.79,35.03c-7.9,9-15.81,17.99-23.71,26.99"/></g></g></g></svg>