<?xml version="1.0" encoding="UTF-8"?><svg id="Layer_2" xmlns="http://www.w3.org/2000/svg" width="94.16" height="94.16" viewBox="0 0 94.16 94.16"><defs><style>.cls-1{fill:#feeff6;}.cls-1,.cls-2{stroke:#c5202d;stroke-linecap:round;stroke-linejoin:round;stroke-width:2px;}.cls-2{fill:none;}</style></defs><g id="Layer_14"><g><circle class="cls-1" cx="47.08" cy="47.08" r="46.08"/><path class="cls-2" d="m40.08,92.54c.03-11.74.07-23.47.1-35.21h-5.09v-11.82h5.09v-1.48c0-4.9,1.52-10.84,5.11-14.49,3.28-3.4,7.75-4.55,11.48-4.55,2.72,0,4.81.31,6.65.78l-.3,12.36c-1.06-.29-2.24-.47-3.68-.47-3.16,0-4.91,2.48-4.91,5.66v2.17h7.19v11.82h-7.07c.03,11.75.06,23.49.09,35.24-2.04.34-4.48.6-7.24.6s-5.33-.27-7.41-.63Z"/></g></g></svg>