<?xml version="1.0" encoding="UTF-8"?><svg id="Layer_2" xmlns="http://www.w3.org/2000/svg" width="94.16" height="94.16" viewBox="0 0 94.16 94.16"><defs><style>.cls-1{fill:#c5202d;}.cls-2{fill:#feeff6;stroke:#c5202d;stroke-linecap:round;stroke-linejoin:round;stroke-width:2px;}</style></defs><g id="Layer_14"><g><circle class="cls-2" cx="47.08" cy="47.08" r="46.08"/><g><path class="cls-1" d="m60.01,23.19c6.04,0,10.96,4.92,10.96,10.96v25.86c0,6.04-4.92,10.96-10.96,10.96h-25.86c-6.04,0-10.96-4.92-10.96-10.96v-25.86c0-6.04,4.92-10.96,10.96-10.96h25.86m0-2h-25.86c-7.16,0-12.96,5.8-12.96,12.96v25.86c0,7.16,5.8,12.96,12.96,12.96h25.86c7.16,0,12.96-5.8,12.96-12.96v-25.86c0-7.16-5.8-12.96-12.96-12.96h0Z"/><path class="cls-1" d="m47.08,37.03c5.54,0,10.05,4.51,10.05,10.05s-4.51,10.05-10.05,10.05-10.05-4.51-10.05-10.05,4.51-10.05,10.05-10.05m0-2c-6.65,0-12.05,5.39-12.05,12.05s5.39,12.05,12.05,12.05,12.05-5.39,12.05-12.05-5.39-12.05-12.05-12.05h0Z"/><circle class="cls-1" cx="61.7" cy="34.28" r="2.57"/></g></g></g></svg>