<?xml version="1.0" encoding="UTF-8"?><svg id="Layer_2" xmlns="http://www.w3.org/2000/svg" width="94.16" height="94.16" viewBox="0 0 94.16 94.16"><defs><style>.cls-1{fill:#feeff6;}.cls-1,.cls-2{stroke:#c5202d;stroke-linecap:round;stroke-linejoin:round;stroke-width:2px;}.cls-2{fill:none;}</style></defs><g id="Layer_14"><g><circle class="cls-1" cx="47.08" cy="47.08" r="46.08"/><g><path class="cls-2" d="m28.91,42.54c2.92-5.66,9.05-17.55,18.37-17.59,10.18-.04,16.61,14.1,19.14,19.67,2.56,5.62,6.66,14.65,2.63,20.22-2.78,3.85-8.85,4.04-20.86,4.27-13.23.25-19.85.37-22.91-3.7-4.84-6.45,1.07-17.92,3.63-22.87Z"/><path class="cls-2" d="m55.03,68.88c-5.3.11-10.6.22-15.9.33,0-6.47,0-12.95,0-19.42h15.9v19.09Z"/><line class="cls-2" x1="28.81" y1="60.86" x2="29.47" y2="62.36"/><line class="cls-2" x1="33.13" y1="55.37" x2="32.45" y2="56.86"/><line class="cls-2" x1="34.83" y1="61.59" x2="34.42" y2="63.18"/><line class="cls-2" x1="35.44" y1="42.02" x2="36.07" y2="43.59"/><line class="cls-2" x1="41.07" y1="34.9" x2="40.37" y2="36.44"/><line class="cls-2" x1="44.41" y1="44.23" x2="43.99" y2="45.87"/><line class="cls-2" x1="56.18" y1="43.46" x2="55.49" y2="45"/><line class="cls-2" x1="48.31" y1="28.92" x2="47.64" y2="30.48"/><line class="cls-2" x1="54.83" y1="34.42" x2="55.24" y2="36.06"/><line class="cls-2" x1="60.33" y1="54.65" x2="59.66" y2="56.14"/><line class="cls-2" x1="60.85" y1="62.39" x2="60.46" y2="63.98"/><line class="cls-2" x1="65.93" y1="58.03" x2="66.32" y2="59.62"/><line class="cls-2" x1="31.17" y1="48.81" x2="31.83" y2="50.31"/><line class="cls-2" x1="48.95" y1="38.11" x2="49.1" y2="39.8"/><line class="cls-2" x1="64.02" y1="50.81" x2="62.86" y2="52.03"/><line class="cls-2" x1="62.4" y1="44.94" x2="61.6" y2="46.39"/></g></g></g></svg>