<?xml version="1.0" encoding="UTF-8"?><svg id="Layer_2" xmlns="http://www.w3.org/2000/svg" width="1920" height="427.15" viewBox="0 0 1920 427.15"><defs><style>.cls-1{fill:#fff;}.cls-2{fill:#feeff6;}.cls-3{fill:#c5202d;}</style></defs><g id="Layer_8"><g><circle class="cls-3" cx="949.61" cy="136.79" r="136.79"/><g><path class="cls-2" d="m1.5,406.23v-63.95c31.64-1.1,63.78-2.56,95.57-4.35,110.76-6.22,176.6-11.01,251.14-21.42,114.51-15.98,198.22-44.15,295.15-76.76,57.65-19.4,114.4-41.16,168.69-64.7l86.95-42.19,21.23,3.82.36.02,18.98-1.23,20.21,3.49.63-.03,19.02-4.94,21.19,2.74.52-.02,16.81-3.81c43.44,26.09,90.06,50.02,138.57,71.12,14.04,6.11,35.96,15.47,64.08,26.15,35.64,13.54,134.52,47.92,282.58,74.69,22.21,4.02,44.69,7.71,66.81,10.98,2.92.43,6.51.96,10.77,1.56,6.67.95,67.2,9.43,138,15.38,80.76,6.79,159.24,8.96,199.75,9.65v77.45L1.5,406.23Z"/><path class="cls-3" d="m899.21,134.45l1.91.34,18.83,3.39.73.04,18.8-1.21,20.03,3.46,1.26-.05,12.87-3.34,5.87-1.53,10.16,1.31,10.74,1.39,1.05-.05,8.7-1.97,7.52-1.71c43.35,26.01,89.85,49.86,138.23,70.91,14.07,6.12,36.03,15.49,64.14,26.17,35.68,13.55,134.67,47.97,282.84,74.77,22.25,4.02,44.74,7.72,66.85,10.99,2.92.43,6.52.96,10.78,1.56,6.67.95,67.23,9.43,138.09,15.39,79.81,6.71,157.43,8.91,198.38,9.63v74.47l-956.98-6.82L3,404.74v-61.01c31.16-1.09,62.83-2.54,94.15-4.3,110.81-6.22,176.67-11.02,251.27-21.43,114.66-16,198.43-44.19,295.43-76.83,57.68-19.41,114.47-41.19,168.8-64.74l.12-.05,86.46-41.95m118.99-3.13c-5.8,1.32-11.6,2.63-17.39,3.95-7.16-.92-14.32-1.85-21.47-2.77-6.43,1.67-12.87,3.34-19.3,5.01-6.8-1.17-13.59-2.34-20.38-3.52-6.39.41-12.77.82-19.16,1.24-7.24-1.3-14.47-2.61-21.71-3.91-29.11,14.12-58.22,28.25-87.33,42.37-40.75,17.66-97.89,40.87-168.56,64.65-97.05,32.66-180.51,60.74-294.89,76.7-76.45,10.67-145.32,15.47-251.02,21.4-40.12,2.25-73.56,3.59-96.98,4.4v66.89c640,4.56,1280,9.13,1920,13.69v-80.44c-30.81-.51-113.37-2.3-201.13-9.67-65.41-5.5-122.21-13.14-137.92-15.37-4.26-.6-7.85-1.13-10.77-1.56-20.88-3.08-43.11-6.69-66.76-10.97-157.7-28.52-256.86-64.95-282.31-74.62-26.32-10-47.85-19.09-64.01-26.12-61.51-26.76-108.47-53.04-138.91-71.35h0Z"/></g><g><path class="cls-1" d="m1087.49,269.5c-.5,0-.96-.05-1.38-.16-3.93-.99-3.89-7.17-3.51-17.19.59-15.27,1.39-36.18-16.95-50.28-5.13-3.94-12.48-7.92-17.34-7.92-1.03,0-1.94.17-2.71.52-6.07,2.71-1.66,13.34,3.01,24.6,3.3,7.94,7.81,18.82,4.6,20.3-.41.19-1.01.29-1.73.29-6.68,0-21.16-7.75-27.45-18.46-2.95-5.01-3.11-9.17-3.29-13.57-.2-5.02-.43-10.71-4.84-18.17-3.52-5.97-11.09-15.43-16.42-15.43-.31,0-.61.03-.89.09-6.3,1.32-4.37,14.68-.68,36.36,2.75,16.21,6.53,38.42.63,39.87-.23.06-.49.09-.76.09-5.47,0-16.64-10.16-22.53-20.51-4.8-8.42-5.41-15.77-5.89-21.68-.48-5.77-.85-10.33-5.54-11.83-.83-.27-1.73-.4-2.67-.4-4.89,0-10.4,3.65-15.74,7.19-4.61,3.05-9.38,6.21-12.77,6.21-.49,0-.93-.06-1.34-.2-5.46-1.76-3.14-15.75-1.44-25.96,1.62-9.72,2.59-15.59-.97-16.36-.19-.04-.38-.06-.58-.06-4.85,0-14.31,14.5-20.76,28.15-7.54,15.96-10.35,29.26-12.41,38.97-2.35,11.09-3.69,16.46-8.49,17.51-.51.11-1.02.17-1.53.17-3.7,0-7.36-3.06-11.6-6.59-6.15-5.14-13.8-11.53-25.76-12.52-1.03-.08-2.08-.13-3.13-.13-16.38,0-30.89,10.5-41.48,18.16-5.84,4.22-10.88,7.87-13.73,7.87-.35,0-.64-.06-.9-.18-.18-.08-.73-.34-1.04-1.43-.98-3.46,1.35-10.76,5.44-16.97,6.53-9.94,15.52-14.2,26.89-19.59,8.59-4.07,18.32-8.69,28.74-16.76,15.24-11.81,26.36-26.78,26.13-32.27-.06-1.38-.73-2.09-1.28-2.45-.52-.33-1.18-.51-1.97-.51-8.23,0-38.62,20.47-49.64,28.36-12.89,9.23-23.19,17.92-30.71,24.26-8.18,6.9-14.65,12.35-17.38,12.35-.16,0-.29-.02-.41-.07-1.48-.57.65-7.08,1.93-10.97,2.45-7.48,4.98-15.22-.03-17.54-.71-.33-1.5-.49-2.36-.49-4.31,0-10.48,4.18-19.81,10.5-12.73,8.63-31.98,21.66-58.69,31.85-19.47,7.42-40.64,12.81-50.33,12.81-3.97,0-4.48-.89-4.49-.9-.21-.48-.89-5.39,40.83-30.86,58.57-23.84,117.08-49.88,173.9-77.41,13.35-6.47,26.87-13.14,40.18-19.84l21.1,3.82c.09.02.18.02.27.02.03,0,.06,0,.1,0l18.88-1.23,20.11,3.48c.08.02.17.02.26.02.13,0,.25-.02.38-.05l18.92-4.94,21.07,2.73c.06,0,.13.01.19.01.11,0,.22-.01.33-.04l16.79-3.83,189.66,92.82c48.71,26.4,49.34,32.48,48.97,33.43-.25.64-2.42,1.85-8.87,1.85-12.4,0-35.99-4.66-58.5-14.9-19.05-8.66-31.81-19.35-41.13-27.16-7.89-6.61-13.59-11.38-18.97-11.38-.86,0-1.7.12-2.52.36-6.53,1.94-7.94,9.9-10.27,23.08-1.13,6.4-1.07,10.79-1.02,14.31.06,4.42.1,7.34-2.28,11.46-4.45,7.71-14.56,15.27-20.41,15.27Z"/><path class="cls-3" d="m894.66,131.89l9.81,1.78,10.8,1.95c.18.03.36.05.53.05.06,0,.13,0,.19,0l9.53-.62,9.17-.6,9.79,1.7,10.14,1.76c.17.03.34.04.51.04.25,0,.51-.03.76-.1l18.64-4.87,6.54.85,14.24,1.85c.13.02.26.02.39.02.22,0,.45-.03.67-.08l2.71-.62,13.56-3.09,189.12,92.56c17.59,9.53,30.63,17.33,38.77,23.17,6.85,4.92,8.75,7.42,9.27,8.37-.76.34-2.72.93-7.21.93-12.24,0-35.57-4.62-57.88-14.77-18.86-8.58-31.54-19.19-40.79-26.94-8.13-6.81-14-11.73-19.93-11.73-1,0-1.99.14-2.94.43-7.42,2.2-8.97,10.98-11.32,24.26-1.16,6.54-1.1,11.01-1.05,14.59.06,4.32.1,6.92-2.08,10.69-4.16,7.19-13.8,14.52-19.11,14.52-.37,0-.72-.04-1.02-.11-2.95-.74-2.68-7.66-2.37-15.67.57-14.72,1.42-36.96-17.54-51.53-4.94-3.79-12.68-8.23-18.25-8.23-1.24,0-2.36.22-3.32.65-7.41,3.3-2.73,14.59,2.24,26.54,1.82,4.39,3.7,8.93,4.74,12.57,1.37,4.79.63,5.79.61,5.8-.05.03-.37.15-1.11.15-6.19,0-20.21-7.61-26.16-17.72-2.76-4.69-2.91-8.48-3.09-12.87-.21-5.2-.45-11.09-5.04-18.87-2.66-4.5-11.01-16.17-17.71-16.17-.41,0-.81.04-1.2.12-8.04,1.69-5.44,16.95-1.85,38.08,1.62,9.55,3.3,19.42,3.67,27,.4,8.34-1.01,10.94-1.91,11.16-.11.03-.25.04-.4.04-4.4,0-15.27-9.3-21.23-19.75-4.63-8.13-5.23-15.3-5.7-21.06-.48-5.82-.94-11.32-6.58-13.13-.98-.31-2.03-.47-3.12-.47-5.34,0-11.05,3.78-16.57,7.44-4.42,2.93-9,5.96-11.94,5.96-.33,0-.62-.04-.88-.13-4.23-1.37-1.76-16.28-.43-24.29,1.7-10.24,2.82-17-2.13-18.07-.29-.06-.59-.09-.9-.1h0c-1.92,0-4.88,1.05-10.74,9.24-3.86,5.38-7.89,12.4-11.37,19.77-7.61,16.12-10.45,29.52-12.52,39.3-2.43,11.46-3.61,15.54-7.34,16.36-.4.09-.81.13-1.21.13-3.16,0-6.62-2.89-10.63-6.25-6.31-5.27-14.17-11.83-26.59-12.86-1.07-.09-2.16-.13-3.25-.13-16.87,0-31.6,10.66-42.36,18.45-5.15,3.73-10.48,7.58-12.85,7.58-.12,0-.22-.01-.27-.04-.03-.02-.14-.16-.23-.48-.74-2.6,1.06-9.36,5.25-15.74,6.3-9.59,15.12-13.77,26.28-19.06,8.66-4.1,18.47-8.76,29.02-16.93,14.51-11.25,26.99-26.91,26.71-33.52-.09-2.12-1.27-3.19-1.96-3.64-.77-.5-1.7-.75-2.78-.75-10.39,0-50.11,28.36-50.51,28.64-12.94,9.27-23.27,17.97-30.81,24.33-6.44,5.43-13.09,11.04-15.81,11.89.04-1.91,1.45-6.24,2.34-8.96,2.53-7.73,5.4-16.49-.83-19.37-.9-.42-1.91-.63-2.99-.63-4.77,0-10.75,4.05-20.66,10.76-12.68,8.59-31.83,21.56-58.39,31.69-19.32,7.37-40.26,12.72-49.8,12.72-1.28,0-2.12-.1-2.65-.21,1.42-2.29,8.14-9.45,39.67-28.71,58.56-23.83,117.06-49.87,173.88-77.4,13.24-6.41,26.61-13.02,39.76-19.63m118.36-3.13c-5.77,1.32-11.54,2.63-17.31,3.95-7.12-.92-14.24-1.85-21.36-2.77-6.4,1.67-12.8,3.34-19.2,5.01-6.76-1.17-13.52-2.34-20.28-3.52-6.35.41-12.71.82-19.06,1.24-7.2-1.3-14.4-2.61-21.6-3.91-13.38,6.74-26.91,13.42-40.61,20.06-59.03,28.6-117.11,54.29-173.93,77.41-36.67,22.38-42.78,30.01-41.52,32.82.55,1.23,2.65,1.79,5.85,1.79,10.22,0,31.77-5.63,50.87-12.91,45.41-17.32,68.54-42.26,77.97-42.26.64,0,1.21.11,1.73.35,7.22,3.34-7.73,26.25-1.81,28.55.29.11.6.17.95.17,6.03,0,20.81-16.72,48.96-36.89,16.03-11.48,41.99-28.08,48.76-28.08.49,0,.87.09,1.15.27,3.33,2.16-7.65,18.86-24.96,32.27-23.85,18.49-44.07,18.61-55.96,36.72-5.42,8.25-8.05,18.6-3.78,20.58.46.22.97.32,1.53.32,8.95,0,29.87-26.03,55.21-26.03.99,0,2,.04,3,.12,20.01,1.65,27.52,19.12,37.47,19.12.61,0,1.22-.07,1.85-.2,11.3-2.47,6.16-23.9,21.93-57.3,7.12-15.09,16-27.29,19.4-27.29.09,0,.18,0,.26.03,5.33,1.15-8.99,38.65,2.27,42.28.57.19,1.18.27,1.81.27,7.87,0,19.85-13.4,28.51-13.4.76,0,1.5.1,2.21.33,7.66,2.46.91,15.85,10.59,32.82,5.91,10.36,17.48,21.27,23.84,21.27.39,0,.77-.04,1.12-.13,13.73-3.38-11.04-73.9,0-76.22.19-.04.38-.06.58-.06,4.25,0,11.46,8.49,15.12,14.7,8.03,13.6,1.53,20.51,8.13,31.74,6.52,11.09,21.6,19.2,28.74,19.2.94,0,1.74-.14,2.36-.43,9.1-4.2-17.04-40.7-7.63-44.89.6-.27,1.31-.39,2.1-.39,4.47,0,11.56,3.87,16.42,7.6,29.52,22.68,7.72,64.39,21.01,67.73.55.14,1.14.2,1.75.2,6.89,0,17.27-8.34,21.71-16.02,4.57-7.92.93-11.83,3.48-26.26,2.21-12.52,3.58-20.23,9.22-21.91.69-.2,1.38-.3,2.09-.3,10.74,0,24.48,22.49,59.48,38.41,22.28,10.13,45.95,15.03,59.12,15.03,5.79,0,9.55-.95,10.27-2.81,1.32-3.41-6.71-12.02-49.71-35.32-63.38-31.02-126.76-62.04-190.13-93.05h0Z"/></g><rect class="cls-2" y="343.7" width="1920" height="83.45"/></g></g></svg>