<?xml version="1.0" encoding="UTF-8"?><svg id="Layer_2" xmlns="http://www.w3.org/2000/svg" width="94.16" height="94.16" viewBox="0 0 94.16 94.16"><defs><style>.cls-1{fill:#feeff6;}.cls-1,.cls-2{stroke:#c5202d;stroke-linecap:round;stroke-linejoin:round;stroke-width:2px;}.cls-2{fill:none;}</style></defs><g id="Layer_14"><g><circle class="cls-1" cx="47.08" cy="47.08" r="46.08"/><g><path class="cls-2" d="m69.29,43.83l8.86,1.64-5.74-9.68"/><path class="cls-2" d="m63.06,59.25l-16.11-18.62c-2.72,4.35-5.45,8.7-8.17,13.04,8.09,1.86,16.19,3.72,24.28,5.58Z"/><path class="cls-2" d="m55.42,50.42l11.96-14.63h5.03c-4.1,10.34-8.2,20.67-12.3,31.01"/><path class="cls-2" d="m35.82,70.41l-3.94-6.56c1.2-3.61,2.41-7.22,3.61-10.83.87,5.69,1.75,11.37,2.62,17.06-.77.11-1.53.22-2.3.33Z"/><path class="cls-2" d="m17.45,28.41l21.94,24.28c-.21.33-.41.66-.62.98-1.09-.22-2.19-.44-3.28-.66-1.2,3.61-2.41,7.22-3.61,10.83l-14.44-35.44Z"/><path class="cls-2" d="m38.12,70.08c.17,1.15.35,2.31.52,3.46,8.14-4.76,16.28-9.53,24.42-14.29"/><path class="cls-2" d="m60.1,66.8c-4.32.6-8.64,1.2-12.96,1.8"/></g></g></g></svg>