<?xml version="1.0" encoding="UTF-8"?><svg id="Layer_2" xmlns="http://www.w3.org/2000/svg" width="94.16" height="94.16" viewBox="0 0 94.16 94.16"><defs><style>.cls-1{fill:#feeff6;}.cls-1,.cls-2{stroke:#c5202d;stroke-linecap:round;stroke-linejoin:round;stroke-width:2px;}.cls-2{fill:none;}</style></defs><g id="Layer_14"><g><circle class="cls-1" cx="47.08" cy="47.08" r="46.08"/><g><path class="cls-1" d="m65.58,52.97c-2.42.64-4.55.46-5.93.22,3.42,2.19,5.08,4.77,5.84,6.2,2.43,4.58,2.7,10.65.68,11.76-.79.44-1.82.04-2.86.96-.77.68-.69,1.32-1.13,1.81-1.37,1.5-6.29.11-9.47-2.36-4.29-3.33-5.21-8.44-5.44-10.25-.7,2.48-2.08,5.68-4.9,8.37-3.77,3.59-9.43,5.61-10.86,4.12-.48-.5-.34-1.23-1.19-1.97-.95-.82-1.85-.55-2.6-.93-1.95-.98-1.92-5.99-.79-9.54,1.5-4.73,5.12-7.39,6.79-8.46-1.18.11-3.08.16-5.27-.43-6.37-1.73-10.88-7.74-9.87-9.73.32-.63,1.16-.82,1.4-1.85.22-.95-.34-1.49-.35-2.11-.01-2.22,7.28-5.97,13.98-4.12,3.03.84,5.13,2.59,6.3,3.77-1.75-3.49-1.75-6.39-1.62-7.87.54-6.2,5.36-11.47,7.42-10.9.66.18,1.04.97,2.09.99.98.02,1.35-.65,1.99-.77,1.9-.37,5.17,4.22,6.19,9.04.36,1.69.79,5.1-.7,9.42,1.16-1.09,3.05-2.56,5.7-3.35,6.33-1.88,13.31,1.17,13.44,3.38.04.64-.59,1.29-.27,2.3.29.94,1.07,1.13,1.37,1.64,1.16,1.95-3.23,8.87-9.95,10.65Z"/><circle class="cls-2" cx="47.08" cy="48.98" r="2.86"/></g></g></g></svg>